<?xml version="1.0" encoding="UTF-8"?>
<svg xmlns="http://www.w3.org/2000/svg" xml:space="preserve" id="logo" draggable="false" x="0" y="0" version="1.1" viewBox="0 0 200.1 54.7">
      <style>
        .white-fill{fill:#fff}
      </style>
      <path d="M66.9 33.7c0-7.2 4.9-11.3 10-11.3 2.9 0 5.7 1.4 7.3 3.8V14.6h4.9v29.8h-4.9v-3.6c-1.6 2.5-4.4 4.1-7.3 4-5.1.1-10-4-10-11.1zm17.4 0c0-4.2-2.9-7-6.2-7-3.4 0-6.2 2.6-6.2 6.9v.1c0 4.2 2.9 6.9 6.2 6.9s6.2-2.8 6.2-6.9zM96 22.9c1.4 0 2.5 1.1 2.5 2.5v19.1h-4.9V25.3c0-1.3 1.1-2.4 2.4-2.4zm5.2 18.7 2.2-3.3c2 1.6 4.5 2.5 7.1 2.7 2.1 0 3.3-.9 3.3-2.3v-.1c0-1.7-2.3-2.2-4.8-3-3.2-.9-6.7-2.2-6.7-6.3v-.1c0-4.1 3.4-6.6 7.7-6.6 2.8.1 5.6.9 7.9 2.4l-2 3.5c-1.8-1.2-3.9-1.9-6.1-2-1.9 0-3 .9-3 2.2v.1c0 1.5 2.3 2.2 4.9 3 3.1 1 6.7 2.4 6.7 6.3v.1c0 4.5-3.5 6.8-8 6.8-3.4-.2-6.6-1.4-9.2-3.4zm18.9-7.8c-.1-6.2 4.8-11.3 11-11.3h.2c3.3-.1 6.5 1.2 8.6 3.7l-3.1 3.3c-1.4-1.7-3.4-2.7-5.6-2.7-3.6 0-6.2 3.1-6.2 6.9v.1c0 3.8 2.7 6.9 6.4 6.9 2.2-.1 4.2-1 5.6-2.7l3 2.9c-4 4.8-11.1 5.4-15.9 1.4-2.5-2.2-4-5.3-4-8.5zm22.2 2.8V22.9h4.9v12.2c0 3.3 1.7 5.3 4.6 5.3 2.9 0 4.9-2 4.9-5.3V22.9h4.9v21.5h-4.9v-3.3c-1.4 2.4-4 3.8-6.7 3.8-4.9 0-7.7-3.3-7.7-8.3zm21.7 5 2.2-3.3c2 1.6 4.5 2.5 7.1 2.7 2.1 0 3.3-.9 3.3-2.3v-.1c0-1.7-2.3-2.2-4.8-3-3.2-.9-6.7-2.2-6.7-6.3v-.1c0-4.1 3.4-6.6 7.7-6.6 2.8.1 5.6.9 7.9 2.4l-2 3.5c-1.8-1.2-3.9-1.9-6.1-2-1.9 0-3 .9-3 2.2v.1c0 1.5 2.3 2.2 4.9 3 3.1 1 6.7 2.4 6.7 6.3v.1c0 4.5-3.5 6.8-8 6.8-3.4-.2-6.6-1.4-9.2-3.4zm18 0 2.2-3.3c2 1.6 4.5 2.5 7.1 2.7 2.1 0 3.3-.9 3.3-2.3v-.1c0-1.7-2.3-2.2-4.8-3-3.2-.9-6.7-2.2-6.7-6.3v-.1c0-4.1 3.4-6.6 7.7-6.6 2.8.1 5.6.9 7.9 2.4l-2 3.5c-1.8-1.2-3.9-1.9-6.1-2-1.9 0-3 .9-3 2.2v.1c0 1.5 2.3 2.2 4.9 3 3.1 1 6.7 2.4 6.7 6.3v.1c0 4.5-3.5 6.8-8 6.8-3.4-.2-6.6-1.4-9.2-3.4z" class="white-fill"></path>
      <circle cx="96" cy="18.7" r="2.5" class="white-fill"></circle>
      <path d="M54.7 23c-.3-6.4-1.6-12.4-5-16.6-1.6-2.1-3.9-3.6-6.4-4.3v42.2h-6.6v-2.9c-1.9 2.2-4.6 3.4-7.5 3.4-3 0-5.9-1.2-8-3.4-2.4-2.6-3.7-6-3.6-9.5 0-8.6 5.8-13 11.6-13 2.8 0 5.6 1.1 7.5 3.2V1.5c-.6.1-1.3.1-1.9.2-6.4 1.1-14.2 4.7-21.5 9.9C6.1 17 1.3 23 1.5 29.2c0 6.2 4.9 12.6 13.2 17.6s17.3 7.1 23.7 6c6.6-1 10.8-5 13.3-10.9C54 36 55 29.5 54.7 23z" class="white-fill"></path>
      <path d="M30.4 38.8c-3.6 0-6.2-3-6.2-7v-.1c0-4.1 2.6-7 6.2-7s6.3 3 6.3 7v.1c0 3.4-2.3 7-6.3 7z" class="white-fill"></path>
    </svg>