<svg version="1.1" id="Layer_1" xmlns="http://www.w3.org/2000/svg" x="0" y="0" viewBox="0 0 1920 131.2" xml:space="preserve"><style>.st0{opacity:.2161;fill:#c1c1c1;enable-background:new}</style><g id="Desktop"><g id="Homepage-2" transform="translate(0 -6713)"><g id="Footer-" transform="translate(-1 6713)"><g id="Footer-BG"><path id="Path-2" class="st0" d="M1 65.6c93.1 6.1 217.6-7.7 373.4-41.5 233.8-50.6 235.5 0 586.7 0s528.5-60.7 771.6 10.4c45.1 13.2 108.1 28.8 189 46.9l-.8 27-1742.3 22.8L1 65.6z"/><path id="Path-2-Copy" class="st0" d="M.5 9.9C198-4.3 349.1 3.9 453.8 34.5c162.1 47.4 297.6 71.1 406.7 71.1L.5 116.8V9.9z"/><path id="Path-2-Copy-2" class="st0" d="M1131 72.9c127.1 13.2 268.6 3 424.4-30.7 113.4-24.5 235.4-27.3 366-8.2l-.6 107.9-561.3 7.3L1131 72.9z"/><g id="Mask"><path id="path-1_1_" d="M1 35c177.4 41.2 311.7 61.8 402.7 61.8 97 0 342.3-51.1 557.3-51.1 247.2 0 375.2 53.8 596.5 69.9C1671.8 124 1792.9 97.1 1921 35v515H1V35z" fill="#6c16c7"/></g></g></g></g></g></svg>