<svg width="111" height="103" xmlns="http://www.w3.org/2000/svg" xmlns:xlink="http://www.w3.org/1999/xlink">
<defs>
    <filter x="-147.6%" y="-119.7%" width="395.1%" height="377.7%" filterUnits="objectBoundingBox" id="a">
        <feOffset dy="4" in="SourceAlpha" result="shadowOffsetOuter1"></feOffset>
        <feGaussianBlur stdDeviation="9" in="shadowOffsetOuter1" result="shadowBlurOuter1"></feGaussianBlur>
        <feColorMatrix values="0 0 0 0 0 0 0 0 0 0 0 0 0 0 0 0 0 0 0.330417799 0" in="shadowBlurOuter1"></feColorMatrix>
    </filter>
    <path d="M68.347 62.385v14.232a2 2 0 002.938 1.766l13.391-7.115a2 2 0 000-3.532l-13.39-7.117a2 2 0 00-2.94 1.766z" id="b"></path>
</defs>
<g fill="none" fill-rule="evenodd">
    <path d="M21.374 24.695c4.865-2.343 10.385-5.5 16.034-9.26 5.645-3.684 11.42-7.976 16.712-10.892C59.44 1.584 64.278 0 68.69.74 77.329 2.523 85.9 3.417 92.695 13.2c3.325 4.911 6.025 12.28 7.749 21.66 1.761 9.179 2.546 20.369 2.915 28.264.046 9.103-.379 14.074-2.63 18.82-2.188 4.569-6.203 8.914-11.867 12.668-5.63 3.691-12.91 6.794-20.879 7.484-7.968.747-16.626-.918-24.986-5.47-8.374-4.5-16.233-9.147-22.837-13.49-6.603-4.41-11.95-8.517-15.258-13.494C1.565 64.712.268 58.914 1.087 52.26c.759-6.487 3.634-13.83 7.24-18.017 3.904-5.293 8.148-7.014 13.047-9.548z" fill="#41479D" style="mix-blend-mode:hard-light"></path><path d="M83.591 87.625c-4.975.942-10.74 2.46-16.769 4.495-6.007 1.968-12.278 4.453-17.78 5.81-5.536 1.39-10.303 1.65-14.119-.091-7.392-3.712-14.937-6.601-18.718-17.112-1.82-5.255-2.478-12.584-1.762-21.498.632-8.74 2.637-19.066 4.219-26.306 2.168-8.257 3.759-12.656 6.95-16.408 3.09-3.607 7.781-6.568 13.822-8.593C45.429 5.944 52.775 4.9 60.16 6.209c7.398 1.258 14.835 4.867 21.303 11.019 6.492 6.108 12.483 12.224 17.41 17.76 4.91 5.598 8.757 10.614 10.544 15.925 1.827 5.275 1.594 10.841-.763 16.669-2.261 5.692-6.647 11.645-10.93 14.562-4.82 3.846-9.081 4.375-14.134 5.48z" fill="#56D4CB" style="mix-blend-mode:hard-light" opacity=".904"></path>
    <g transform="translate(-15 -15)">
        <use fill="#000" filter="url(#a)" xlink:href="#b"></use>
        <use fill="#FFF" xlink:href="#b"></use>
    </g>
</g>
</svg>